<mxfile host="65bd71144e" pages="3">
    <diagram name="Page-1" id="6qVybAu3rOkevgf7E7gu">
        <mxGraphModel dx="614" dy="407" grid="1" gridSize="10" guides="1" tooltips="1" connect="1" arrows="1" fold="1" page="1" pageScale="1" pageWidth="827" pageHeight="1169" math="0" shadow="0">
            <root>
                <mxCell id="0"/>
                <mxCell id="1" parent="0"/>
                <mxCell id="gg4TKkI3vmr2n3mTWyEU-6" value="" style="edgeStyle=orthogonalEdgeStyle;rounded=0;orthogonalLoop=1;jettySize=auto;html=1;" parent="1" source="wCxMIQV_NGHNsLSph-jk-1" target="gg4TKkI3vmr2n3mTWyEU-5" edge="1">
                    <mxGeometry relative="1" as="geometry"/>
                </mxCell>
                <mxCell id="wCxMIQV_NGHNsLSph-jk-1" value="Start" style="ellipse;whiteSpace=wrap;html=1;" parent="1" vertex="1">
                    <mxGeometry x="50" y="60" width="100" height="60" as="geometry"/>
                </mxCell>
                <mxCell id="gg4TKkI3vmr2n3mTWyEU-10" style="edgeStyle=orthogonalEdgeStyle;rounded=0;orthogonalLoop=1;jettySize=auto;html=1;exitX=0.5;exitY=1;exitDx=0;exitDy=0;entryX=0.5;entryY=0;entryDx=0;entryDy=0;" parent="1" source="wCxMIQV_NGHNsLSph-jk-2" target="wCxMIQV_NGHNsLSph-jk-5" edge="1">
                    <mxGeometry relative="1" as="geometry"/>
                </mxCell>
                <mxCell id="wCxMIQV_NGHNsLSph-jk-2" value="Initialize Variables" style="shape=parallelogram;perimeter=parallelogramPerimeter;whiteSpace=wrap;html=1;fixedSize=1;" parent="1" vertex="1">
                    <mxGeometry x="630" y="60" width="160" height="60" as="geometry"/>
                </mxCell>
                <mxCell id="wCxMIQV_NGHNsLSph-jk-8" value="" style="edgeStyle=orthogonalEdgeStyle;rounded=0;orthogonalLoop=1;jettySize=auto;html=1;" parent="1" source="wCxMIQV_NGHNsLSph-jk-5" target="wCxMIQV_NGHNsLSph-jk-7" edge="1">
                    <mxGeometry relative="1" as="geometry"/>
                </mxCell>
                <mxCell id="wCxMIQV_NGHNsLSph-jk-5" value="Initialize velocity field" style="whiteSpace=wrap;html=1;" parent="1" vertex="1">
                    <mxGeometry x="650" y="190" width="120" height="60" as="geometry"/>
                </mxCell>
                <mxCell id="wCxMIQV_NGHNsLSph-jk-10" value="" style="edgeStyle=orthogonalEdgeStyle;rounded=0;orthogonalLoop=1;jettySize=auto;html=1;" parent="1" source="wCxMIQV_NGHNsLSph-jk-7" target="wCxMIQV_NGHNsLSph-jk-9" edge="1">
                    <mxGeometry relative="1" as="geometry"/>
                </mxCell>
                <mxCell id="wCxMIQV_NGHNsLSph-jk-7" value="Apply boundary&lt;div&gt;Conditions&lt;/div&gt;" style="whiteSpace=wrap;html=1;" parent="1" vertex="1">
                    <mxGeometry x="440" y="190" width="120" height="60" as="geometry"/>
                </mxCell>
                <mxCell id="gg4TKkI3vmr2n3mTWyEU-11" style="edgeStyle=orthogonalEdgeStyle;rounded=0;orthogonalLoop=1;jettySize=auto;html=1;exitX=0.5;exitY=1;exitDx=0;exitDy=0;entryX=0.5;entryY=0;entryDx=0;entryDy=0;" parent="1" source="wCxMIQV_NGHNsLSph-jk-9" target="wCxMIQV_NGHNsLSph-jk-15" edge="1">
                    <mxGeometry relative="1" as="geometry"/>
                </mxCell>
                <mxCell id="wCxMIQV_NGHNsLSph-jk-9" value="update u with x momentum&amp;nbsp;&lt;div&gt;equation&lt;/div&gt;" style="shape=parallelogram;perimeter=parallelogramPerimeter;whiteSpace=wrap;html=1;fixedSize=1;" parent="1" vertex="1">
                    <mxGeometry x="140" y="180" width="217.5" height="80" as="geometry"/>
                </mxCell>
                <mxCell id="gg4TKkI3vmr2n3mTWyEU-13" value="" style="edgeStyle=orthogonalEdgeStyle;rounded=0;orthogonalLoop=1;jettySize=auto;html=1;" parent="1" source="wCxMIQV_NGHNsLSph-jk-15" target="gg4TKkI3vmr2n3mTWyEU-12" edge="1">
                    <mxGeometry relative="1" as="geometry"/>
                </mxCell>
                <mxCell id="wCxMIQV_NGHNsLSph-jk-15" value="update v using continuity equation" style="whiteSpace=wrap;html=1;" parent="1" vertex="1">
                    <mxGeometry x="138.75" y="370" width="220" height="77.5" as="geometry"/>
                </mxCell>
                <mxCell id="gg4TKkI3vmr2n3mTWyEU-8" value="" style="edgeStyle=orthogonalEdgeStyle;rounded=0;orthogonalLoop=1;jettySize=auto;html=1;" parent="1" source="gg4TKkI3vmr2n3mTWyEU-5" target="gg4TKkI3vmr2n3mTWyEU-7" edge="1">
                    <mxGeometry relative="1" as="geometry"/>
                </mxCell>
                <mxCell id="gg4TKkI3vmr2n3mTWyEU-5" value="Study nature of governing equations" style="whiteSpace=wrap;html=1;" parent="1" vertex="1">
                    <mxGeometry x="220" y="60" width="120" height="60" as="geometry"/>
                </mxCell>
                <mxCell id="gg4TKkI3vmr2n3mTWyEU-9" style="edgeStyle=orthogonalEdgeStyle;rounded=0;orthogonalLoop=1;jettySize=auto;html=1;exitX=1;exitY=0.5;exitDx=0;exitDy=0;entryX=0;entryY=0.5;entryDx=0;entryDy=0;" parent="1" source="gg4TKkI3vmr2n3mTWyEU-7" target="wCxMIQV_NGHNsLSph-jk-2" edge="1">
                    <mxGeometry relative="1" as="geometry"/>
                </mxCell>
                <mxCell id="gg4TKkI3vmr2n3mTWyEU-7" value="Discretize Governing equations for Explicit Scheme" style="whiteSpace=wrap;html=1;" parent="1" vertex="1">
                    <mxGeometry x="430" y="60" width="120" height="60" as="geometry"/>
                </mxCell>
                <mxCell id="gg4TKkI3vmr2n3mTWyEU-12" value="stop when marching complete in x" style="ellipse;whiteSpace=wrap;html=1;" parent="1" vertex="1">
                    <mxGeometry x="478.75" y="374.68" width="151.25" height="68.13" as="geometry"/>
                </mxCell>
            </root>
        </mxGraphModel>
    </diagram>
    <diagram id="z7oE4e68o23Zhyf9pbFL" name="Page-2">
        <mxGraphModel dx="978" dy="562" grid="1" gridSize="10" guides="1" tooltips="1" connect="1" arrows="1" fold="1" page="1" pageScale="1" pageWidth="850" pageHeight="1100" math="0" shadow="0">
            <root>
                <mxCell id="0"/>
                <mxCell id="1" parent="0"/>
                <mxCell id="aTtOrGwAaKbV3k_A3DYk-1" value="" style="edgeStyle=orthogonalEdgeStyle;rounded=0;orthogonalLoop=1;jettySize=auto;html=1;" edge="1" parent="1" source="aTtOrGwAaKbV3k_A3DYk-2" target="aTtOrGwAaKbV3k_A3DYk-14">
                    <mxGeometry relative="1" as="geometry"/>
                </mxCell>
                <mxCell id="aTtOrGwAaKbV3k_A3DYk-2" value="Start" style="ellipse;whiteSpace=wrap;html=1;" vertex="1" parent="1">
                    <mxGeometry x="50" y="60" width="100" height="60" as="geometry"/>
                </mxCell>
                <mxCell id="aTtOrGwAaKbV3k_A3DYk-3" style="edgeStyle=orthogonalEdgeStyle;rounded=0;orthogonalLoop=1;jettySize=auto;html=1;exitX=0.5;exitY=1;exitDx=0;exitDy=0;entryX=0.5;entryY=0;entryDx=0;entryDy=0;" edge="1" parent="1" source="aTtOrGwAaKbV3k_A3DYk-4" target="aTtOrGwAaKbV3k_A3DYk-6">
                    <mxGeometry relative="1" as="geometry"/>
                </mxCell>
                <mxCell id="aTtOrGwAaKbV3k_A3DYk-4" value="Initialize Variables" style="shape=parallelogram;perimeter=parallelogramPerimeter;whiteSpace=wrap;html=1;fixedSize=1;" vertex="1" parent="1">
                    <mxGeometry x="630" y="60" width="160" height="60" as="geometry"/>
                </mxCell>
                <mxCell id="aTtOrGwAaKbV3k_A3DYk-5" value="" style="edgeStyle=orthogonalEdgeStyle;rounded=0;orthogonalLoop=1;jettySize=auto;html=1;" edge="1" parent="1" source="aTtOrGwAaKbV3k_A3DYk-6" target="aTtOrGwAaKbV3k_A3DYk-8">
                    <mxGeometry relative="1" as="geometry"/>
                </mxCell>
                <mxCell id="aTtOrGwAaKbV3k_A3DYk-6" value="Initialize velocity field" style="whiteSpace=wrap;html=1;" vertex="1" parent="1">
                    <mxGeometry x="650" y="190" width="120" height="60" as="geometry"/>
                </mxCell>
                <mxCell id="aTtOrGwAaKbV3k_A3DYk-7" value="" style="edgeStyle=orthogonalEdgeStyle;rounded=0;orthogonalLoop=1;jettySize=auto;html=1;" edge="1" parent="1" source="aTtOrGwAaKbV3k_A3DYk-8" target="aTtOrGwAaKbV3k_A3DYk-10">
                    <mxGeometry relative="1" as="geometry"/>
                </mxCell>
                <mxCell id="aTtOrGwAaKbV3k_A3DYk-8" value="Apply boundary&lt;div&gt;Conditions&lt;/div&gt;" style="whiteSpace=wrap;html=1;" vertex="1" parent="1">
                    <mxGeometry x="440" y="190" width="120" height="60" as="geometry"/>
                </mxCell>
                <mxCell id="aTtOrGwAaKbV3k_A3DYk-9" style="edgeStyle=orthogonalEdgeStyle;rounded=0;orthogonalLoop=1;jettySize=auto;html=1;exitX=0.5;exitY=1;exitDx=0;exitDy=0;entryX=0.5;entryY=0;entryDx=0;entryDy=0;" edge="1" parent="1" source="aTtOrGwAaKbV3k_A3DYk-10" target="aTtOrGwAaKbV3k_A3DYk-12">
                    <mxGeometry relative="1" as="geometry"/>
                </mxCell>
                <mxCell id="aTtOrGwAaKbV3k_A3DYk-10" value="update u with x momentum&amp;nbsp;&lt;div&gt;equation using a TDMA solver&lt;/div&gt;" style="shape=parallelogram;perimeter=parallelogramPerimeter;whiteSpace=wrap;html=1;fixedSize=1;" vertex="1" parent="1">
                    <mxGeometry x="140" y="180" width="217.5" height="80" as="geometry"/>
                </mxCell>
                <mxCell id="aTtOrGwAaKbV3k_A3DYk-11" value="" style="edgeStyle=orthogonalEdgeStyle;rounded=0;orthogonalLoop=1;jettySize=auto;html=1;" edge="1" parent="1" source="aTtOrGwAaKbV3k_A3DYk-12" target="aTtOrGwAaKbV3k_A3DYk-17">
                    <mxGeometry relative="1" as="geometry"/>
                </mxCell>
                <mxCell id="aTtOrGwAaKbV3k_A3DYk-12" value="update v using continuity equation" style="whiteSpace=wrap;html=1;" vertex="1" parent="1">
                    <mxGeometry x="138.75" y="370" width="220" height="77.5" as="geometry"/>
                </mxCell>
                <mxCell id="aTtOrGwAaKbV3k_A3DYk-13" value="" style="edgeStyle=orthogonalEdgeStyle;rounded=0;orthogonalLoop=1;jettySize=auto;html=1;" edge="1" parent="1" source="aTtOrGwAaKbV3k_A3DYk-14" target="aTtOrGwAaKbV3k_A3DYk-16">
                    <mxGeometry relative="1" as="geometry"/>
                </mxCell>
                <mxCell id="aTtOrGwAaKbV3k_A3DYk-14" value="Study nature of governing equations" style="whiteSpace=wrap;html=1;" vertex="1" parent="1">
                    <mxGeometry x="220" y="60" width="120" height="60" as="geometry"/>
                </mxCell>
                <mxCell id="aTtOrGwAaKbV3k_A3DYk-15" style="edgeStyle=orthogonalEdgeStyle;rounded=0;orthogonalLoop=1;jettySize=auto;html=1;exitX=1;exitY=0.5;exitDx=0;exitDy=0;entryX=0;entryY=0.5;entryDx=0;entryDy=0;" edge="1" parent="1" source="aTtOrGwAaKbV3k_A3DYk-16" target="aTtOrGwAaKbV3k_A3DYk-4">
                    <mxGeometry relative="1" as="geometry"/>
                </mxCell>
                <mxCell id="aTtOrGwAaKbV3k_A3DYk-16" value="Discretize Governing equations for Implicit Scheme" style="whiteSpace=wrap;html=1;" vertex="1" parent="1">
                    <mxGeometry x="430" y="60" width="120" height="60" as="geometry"/>
                </mxCell>
                <mxCell id="aTtOrGwAaKbV3k_A3DYk-17" value="stop when marching complete in x" style="ellipse;whiteSpace=wrap;html=1;" vertex="1" parent="1">
                    <mxGeometry x="478.75" y="374.68" width="151.25" height="68.13" as="geometry"/>
                </mxCell>
            </root>
        </mxGraphModel>
    </diagram>
    <diagram id="mHTCfp34VmIAG5NABGV5" name="Page-3">
        <mxGraphModel dx="614" dy="407" grid="1" gridSize="10" guides="1" tooltips="1" connect="1" arrows="1" fold="1" page="1" pageScale="1" pageWidth="850" pageHeight="1100" math="0" shadow="0">
            <root>
                <mxCell id="0"/>
                <mxCell id="1" parent="0"/>
                <mxCell id="Bgu157Vly52ApbZ-p-6f-1" value="" style="edgeStyle=orthogonalEdgeStyle;rounded=0;orthogonalLoop=1;jettySize=auto;html=1;" parent="1" source="Bgu157Vly52ApbZ-p-6f-2" target="Bgu157Vly52ApbZ-p-6f-14" edge="1">
                    <mxGeometry relative="1" as="geometry"/>
                </mxCell>
                <mxCell id="Bgu157Vly52ApbZ-p-6f-2" value="Start" style="ellipse;whiteSpace=wrap;html=1;" parent="1" vertex="1">
                    <mxGeometry x="70" y="75" width="100" height="60" as="geometry"/>
                </mxCell>
                <mxCell id="Bgu157Vly52ApbZ-p-6f-5" value="" style="edgeStyle=orthogonalEdgeStyle;rounded=0;orthogonalLoop=1;jettySize=auto;html=1;" parent="1" source="Bgu157Vly52ApbZ-p-6f-6" target="Bgu157Vly52ApbZ-p-6f-8" edge="1">
                    <mxGeometry relative="1" as="geometry"/>
                </mxCell>
                <mxCell id="Bgu157Vly52ApbZ-p-6f-6" value="Initialize velocity field" style="whiteSpace=wrap;html=1;" parent="1" vertex="1">
                    <mxGeometry x="330" y="200" width="120" height="60" as="geometry"/>
                </mxCell>
                <mxCell id="Bgu157Vly52ApbZ-p-6f-24" style="edgeStyle=orthogonalEdgeStyle;rounded=0;orthogonalLoop=1;jettySize=auto;html=1;exitX=0.5;exitY=1;exitDx=0;exitDy=0;entryX=0.5;entryY=0;entryDx=0;entryDy=0;" parent="1" source="Bgu157Vly52ApbZ-p-6f-8" target="Bgu157Vly52ApbZ-p-6f-23" edge="1">
                    <mxGeometry relative="1" as="geometry"/>
                </mxCell>
                <mxCell id="Bgu157Vly52ApbZ-p-6f-8" value="Apply boundary&lt;div&gt;Conditions&lt;/div&gt;" style="whiteSpace=wrap;html=1;" parent="1" vertex="1">
                    <mxGeometry x="70" y="200" width="120" height="60" as="geometry"/>
                </mxCell>
                <mxCell id="Bgu157Vly52ApbZ-p-6f-11" value="" style="edgeStyle=orthogonalEdgeStyle;rounded=0;orthogonalLoop=1;jettySize=auto;html=1;" parent="1" source="Bgu157Vly52ApbZ-p-6f-12" target="Bgu157Vly52ApbZ-p-6f-17" edge="1">
                    <mxGeometry relative="1" as="geometry"/>
                </mxCell>
                <mxCell id="Bgu157Vly52ApbZ-p-6f-12" value="update v using continuity equation" style="whiteSpace=wrap;html=1;" parent="1" vertex="1">
                    <mxGeometry x="320" y="336.25" width="220" height="77.5" as="geometry"/>
                </mxCell>
                <mxCell id="Bgu157Vly52ApbZ-p-6f-13" value="" style="edgeStyle=orthogonalEdgeStyle;rounded=0;orthogonalLoop=1;jettySize=auto;html=1;" parent="1" source="Bgu157Vly52ApbZ-p-6f-14" target="Bgu157Vly52ApbZ-p-6f-16" edge="1">
                    <mxGeometry relative="1" as="geometry"/>
                </mxCell>
                <mxCell id="Bgu157Vly52ApbZ-p-6f-14" value="Study nature of governing equations" style="whiteSpace=wrap;html=1;" parent="1" vertex="1">
                    <mxGeometry x="240" y="75" width="120" height="60" as="geometry"/>
                </mxCell>
                <mxCell id="Bgu157Vly52ApbZ-p-6f-16" value="Discretize Governing equations for Crank Nicolson Scheme&lt;div&gt;to get second order&amp;nbsp; accurate in x as well as y&lt;/div&gt;" style="whiteSpace=wrap;html=1;" parent="1" vertex="1">
                    <mxGeometry x="500" y="60" width="220" height="90" as="geometry"/>
                </mxCell>
                <mxCell id="Bgu157Vly52ApbZ-p-6f-17" value="stop when marching complete in x" style="ellipse;whiteSpace=wrap;html=1;" parent="1" vertex="1">
                    <mxGeometry x="620" y="341.87" width="151.25" height="68.13" as="geometry"/>
                </mxCell>
                <mxCell id="Bgu157Vly52ApbZ-p-6f-19" style="edgeStyle=orthogonalEdgeStyle;rounded=0;orthogonalLoop=1;jettySize=auto;html=1;exitX=0.5;exitY=1;exitDx=0;exitDy=0;entryX=0.5;entryY=0;entryDx=0;entryDy=0;" parent="1" source="Bgu157Vly52ApbZ-p-6f-16" target="Bgu157Vly52ApbZ-p-6f-20" edge="1">
                    <mxGeometry relative="1" as="geometry">
                        <mxPoint x="618" y="207" as="targetPoint"/>
                    </mxGeometry>
                </mxCell>
                <mxCell id="Bgu157Vly52ApbZ-p-6f-21" style="edgeStyle=orthogonalEdgeStyle;rounded=0;orthogonalLoop=1;jettySize=auto;html=1;exitX=0;exitY=0.5;exitDx=0;exitDy=0;entryX=1;entryY=0.5;entryDx=0;entryDy=0;" parent="1" source="Bgu157Vly52ApbZ-p-6f-20" target="Bgu157Vly52ApbZ-p-6f-6" edge="1">
                    <mxGeometry relative="1" as="geometry"/>
                </mxCell>
                <mxCell id="Bgu157Vly52ApbZ-p-6f-20" value="Initialize Variables" style="rounded=0;whiteSpace=wrap;html=1;" parent="1" vertex="1">
                    <mxGeometry x="550" y="200" width="120" height="60" as="geometry"/>
                </mxCell>
                <mxCell id="Bgu157Vly52ApbZ-p-6f-25" style="edgeStyle=orthogonalEdgeStyle;rounded=0;orthogonalLoop=1;jettySize=auto;html=1;exitX=1;exitY=0.5;exitDx=0;exitDy=0;entryX=0;entryY=0.5;entryDx=0;entryDy=0;" parent="1" source="Bgu157Vly52ApbZ-p-6f-23" target="Bgu157Vly52ApbZ-p-6f-12" edge="1">
                    <mxGeometry relative="1" as="geometry"/>
                </mxCell>
                <mxCell id="Bgu157Vly52ApbZ-p-6f-23" value="update u with x momentum&amp;nbsp;&lt;div&gt;equation using a TDMA solver&lt;/div&gt;" style="rounded=0;whiteSpace=wrap;html=1;" parent="1" vertex="1">
                    <mxGeometry x="40" y="340" width="180" height="70" as="geometry"/>
                </mxCell>
            </root>
        </mxGraphModel>
    </diagram>
</mxfile>